<?xml version="1.0" encoding="UTF-8"?>
<svg width="20px" height="30px" viewBox="0 0 20 30" version="1.1" xmlns="http://www.w3.org/2000/svg" xmlns:xlink="http://www.w3.org/1999/xlink">
    <title>icon-goods</title>
    <g id="Symbols" stroke="none" stroke-width="1" fill="none" fill-rule="evenodd">
        <g id="Tab-2" transform="translate(-13.000000, -4.000000)" fill="#808080" fill-rule="nonzero">
            <g id="icon-goods" transform="translate(13.000000, 4.000000)">
                <path d="M0.440123871,15.5252328 C0.647791529,15.5252328 0.832965684,15.381294 0.872272573,15.1751292 C1.16877839,13.6170459 1.60728896,11.9783569 1.93083249,10.853419 C2.87942397,12.5328538 5.69906945,12.5368398 6.42477035,10.4278027 C7.5458123,7.16459711 7.26611986,4.320143 6.300715,1.17253143 C6.98710895,1.55474454 7.62260847,1.94492971 8.19653468,2.3373293 C8.39579567,2.47329617 8.66958079,2.42657143 8.80908619,2.23280752 C8.94859165,2.03926503 8.90042365,1.77176011 8.70184423,1.63579324 C7.92206797,1.10277641 7.03641303,0.575295722 6.06782729,0.0675235258 C5.63522415,-0.159899895 5.13786687,0.223641858 5.24647204,0.674281355 C5.29350401,0.879338956 5.37211785,1.13643596 5.46300086,1.43405732 C6.37114937,4.41137812 6.65243227,7.06804738 5.59069147,10.1552046 C5.05243683,11.724803 2.63267656,11.527496 2.50316829,9.6963717 C2.45886281,9.08164187 1.57298061,8.99328552 1.39462271,9.57701312 C1.11674788,10.4820567 0.425582588,12.8244962 0.00752072372,15.0185679 C-0.042237741,15.2792081 0.160885824,15.5252328 0.440123871,15.5252328 L0.440123871,15.5252328 Z" id="Path"></path>
                <path d="M17.575945,23.2720283 C17.3739579,23.1447727 17.1072456,23.2054879 16.9804735,23.4084695 C16.1656061,24.7083585 15.0434057,25.7333485 13.7397516,26.4124183 L13.7397516,23.3094432 C14.9697529,22.3117863 15.7573912,20.7858395 15.7573912,19.0781949 C15.7573912,17.8405895 15.7562752,18.7891814 15.7562752,17.5128168 C15.7562752,16.7082837 15.3634605,15.9539358 14.7052725,15.4948748 L13.5864199,14.7145381 L13.5864199,13.7549682 C13.5864199,12.237535 11.6308273,11.6189563 10.7637334,12.863507 C10.0231882,12.2664363 8.91170094,12.4723305 8.43943045,13.3236883 C7.62858042,12.7537267 6.49432772,13.0924775 6.12115369,14.0081351 C5.16634598,13.4422063 3.75890847,14.0480146 3.75890847,15.296598 C3.75890847,20.3124397 3.75444472,20.15225 3.77229994,20.3677779 C3.84014976,21.2650642 4.18453222,22.1175423 4.68380871,22.7547163 C4.72576853,22.8597919 5.38685791,23.5585774 5.77677123,23.7765698 L5.77677123,26.5956843 C2.64630527,25.1577858 0.465067329,21.8991018 0.92528552,17.6116191 C0.950506057,17.374135 0.77887274,17.1601754 0.542291171,17.1341866 C0.304370375,17.1088699 0.0918932918,17.2811578 0.066672812,17.5193139 C-0.462064846,22.4215666 2.21978876,26.0855417 5.77677123,27.5402434 L5.77677123,28.450076 C5.77677123,29.2727565 6.44366359,29.9415205 7.26254847,29.9415205 L12.2539744,29.9415205 C13.0728593,29.9415205 13.7397516,29.2727565 13.7397516,28.450076 L13.7397516,27.3719882 C15.3384631,26.6333233 16.7387586,25.4219308 17.7111983,23.8697711 C17.8386399,23.6674615 17.7774858,23.3997319 17.575945,23.2720283 L17.575945,23.2720283 Z M11.3469294,13.7549682 C11.3469294,13.3745458 11.6556015,13.0646963 12.0345784,13.0646963 C12.4140018,13.0646963 12.7226738,13.3745458 12.7226738,13.7549682 L12.7226738,14.2335209 C12.2091132,14.1185876 11.5466846,14.4394151 11.3469294,15.3196743 L11.3469294,13.7549682 Z M11.3469294,16.1358576 C11.5116437,16.8707138 11.9993144,17.174066 12.2845514,17.3763755 L12.2845514,17.5654665 C11.8352696,17.7422353 11.3469294,17.4077413 11.3469294,16.9226914 L11.3469294,16.1358576 Z M9.17149435,13.7896947 C9.47882731,13.1220509 10.4831832,13.3416116 10.4831832,14.0798284 L10.4831832,16.9226914 C10.4831832,17.303562 10.1745112,17.6129633 9.79508783,17.6129633 C9.41611082,17.6129633 9.1074388,17.303562 9.1074388,16.9226914 C9.1074388,13.7926072 9.08511972,13.9763213 9.17149435,13.7896947 L9.17149435,13.7896947 Z M6.86750176,14.6022933 C6.86750176,14.2214227 7.17550431,13.9115733 7.55492762,13.9115733 C7.90511311,13.9115733 8.24257671,14.1734778 8.24257671,14.6567354 L8.24257671,16.9226914 C8.24257671,17.303562 7.93457421,17.6129633 7.55492762,17.6129633 C7.17550431,17.6129633 6.86750176,17.303562 6.86750176,16.9226914 C6.86750176,15.6122725 6.86750176,15.9180892 6.86750176,14.6022933 L6.86750176,14.6022933 Z M4.62332421,15.275314 C4.6659535,14.4445681 5.9983991,14.4676443 5.9983991,15.3082481 L5.9983991,16.8406922 C5.9983991,17.6978751 4.62265462,17.6978751 4.62265462,16.8406922 C4.62265462,16.8297141 4.62265462,15.2856199 4.62332421,15.275314 L4.62332421,15.275314 Z M12.8757823,28.450076 C12.8757823,28.7939798 12.5965714,29.0744797 12.2539744,29.0744797 C11.8015678,29.0744797 8.15397021,29.0744797 7.26254847,29.0744797 C6.9197283,29.0744797 6.64051733,28.7939798 6.64051733,28.450076 C6.64051733,27.5886363 6.64051733,25.0825078 6.64051733,24.2221884 C7.59711061,24.5893924 8.11937571,24.5176992 10.338556,24.5176992 C11.2547518,24.5176992 12.1187211,24.2882806 12.8757823,23.8834376 L12.8757823,28.450076 Z M10.338556,23.6506584 C8.23342587,23.6506584 6.70100189,23.9206285 5.406945,22.2759396 C4.94226301,21.7129233 4.62265462,20.8799368 4.62265462,20.022754 L4.62265462,18.2053291 C5.10586142,18.4354198 5.86493138,18.4302668 6.38429496,17.9423043 C6.98266797,18.6359369 8.04505338,18.6619258 8.67511931,17.9983148 C9.28532138,18.6395216 10.304631,18.6406418 10.9150563,17.9989869 C10.9583552,18.0451394 11.005002,18.0886035 11.0545502,18.129155 C10.2303087,18.6296638 9.65916501,19.3569026 9.35964371,20.3077348 C9.28822284,20.5367053 9.41566447,20.7793422 9.64309531,20.8510355 C9.8705261,20.9227288 10.1129107,20.7956972 10.1843316,20.5671749 C10.3610982,20.0025903 10.6588339,19.5580919 11.0407124,19.2157564 C11.9084759,18.4336275 12.964612,18.3684314 13.1482976,18.3366174 C13.4464797,18.2821754 13.6319508,17.9089222 13.6020433,17.5880947 C13.5594139,17.1382193 13.2806494,17.0203735 12.5740291,16.5203128 C11.9124934,16.057219 12.1774201,15.0833104 12.5287216,15.0833104 C12.6304963,15.0833104 12.5287216,15.0331251 14.2124685,16.2071027 C14.6385386,16.5041818 14.8925291,16.9925924 14.8925291,17.5128168 C14.8925291,17.9169877 14.8936451,18.6735759 14.8936451,19.0781949 C14.8936451,21.598438 12.8498923,23.6506584 10.338556,23.6506584 L10.338556,23.6506584 Z" id="Shape"></path>
                <path d="M19.4383808,14.3435285 C18.8933889,14.3435285 18.999422,14.8930581 17.671313,16.1317575 C17.5412428,16.252177 17.3498441,16.1072104 17.4109479,15.9495073 C18.6617786,12.5631732 18.619545,9.04275667 16.0756502,6.53733722 C15.7209337,6.18788923 15.1278674,6.4479489 15.1278674,6.95371062 C15.1278674,7.05490932 15.3017437,7.89854021 15.0746263,8.91886356 C15.0020655,9.24654345 14.5462581,9.22778582 14.4954881,8.89732702 C14.1019078,6.34675026 12.9020718,4.258399 10.718285,2.32612987 C10.5356475,2.16472143 10.261579,2.18625803 10.1050006,2.37452921 C9.94842205,2.5621057 9.96931414,2.84485984 10.1519516,3.00603665 C12.1701741,4.79264457 13.2776804,6.70939811 13.6364406,9.03766197 C13.8379483,10.340971 15.6366914,10.4032649 15.9224415,9.118482 C16.0129739,8.71090845 16.059251,8.28249305 16.0610482,7.84574097 C17.7706066,10.0686378 17.5825777,12.9670415 16.5984022,15.6299325 C16.2138077,16.6798976 17.4621673,17.5371915 18.2542701,16.7961487 C18.5290126,16.5397942 18.7893777,16.2674609 19.0322203,15.9805385 L18.730745,19.2751685 C18.6581842,20.064379 18.4838587,20.8364531 18.2113627,21.5707801 C18.1255478,21.8018929 18.2380956,22.0612579 18.4622926,22.1497199 C18.6903087,22.2377187 18.9389921,22.119615 19.0234591,21.890818 C19.3235866,21.0807656 19.5167824,20.228798 19.5960826,19.3594621 C19.5992276,19.3258836 20.0013445,14.9458574 20,14.9122789 C19.9955037,14.5931674 19.7486174,14.3435285 19.4383808,14.3435285 L19.4383808,14.3435285 Z" id="Path"></path>
            </g>
        </g>
    </g>
</svg>