<?xml version="1.0" encoding="UTF-8"?>
<svg width="28px" height="29px" viewBox="0 0 28 29" version="1.1" xmlns="http://www.w3.org/2000/svg" xmlns:xlink="http://www.w3.org/1999/xlink">
    <title>icon-All</title>
    <g id="Symbols" stroke="none" stroke-width="1" fill="none" fill-rule="evenodd">
        <g id="Tab-1/desactivado" transform="translate(-9.000000, -5.000000)" fill="#808080" fill-rule="nonzero">
            <g id="icon-All" transform="translate(9.000000, 5.000000)">
                <path d="M5.44315092,17.9047535 C5.44315092,19.9670046 3.69428623,21.6435507 3.6769235,21.6597889 C3.53096219,21.797145 3.52084985,22.0260081 3.65440923,22.1755905 C3.78777777,22.325364 4.01597356,22.3410291 4.16880364,22.2113145 C5.44009814,21.1309968 6.64518529,20.3888156 7.75067537,20.0050211 C7.94357328,19.9381579 8.04545999,19.7274434 7.97868032,19.5344954 C7.91190061,19.3415474 7.70164001,19.2395333 7.50874209,19.3062054 C6.89417816,19.5195945 6.25500111,19.8323231 5.595981,20.2415256 C6.97908376,17.4464542 5.84325665,15.053517 3.18485258,13.3039945 C6.12678411,11.9736085 8.1101409,9.62823964 6.95809583,6.59876504 C10.5010446,9.37855346 13.7209704,9.34512187 15.402483,5.09529899 C16.0174285,7.08361854 17.3776354,8.3754149 19.4737545,8.3754149 C20.9772515,8.3754149 22.8052978,7.70659221 24.9241219,6.3836567 C24.1933613,7.55338001 23.3870443,9.15599465 23.3057638,10.6323334 C23.2946975,10.8361705 23.4505804,11.0105878 23.6543538,11.021859 C23.8577457,11.0335123 24.032136,10.8768615 24.0433932,10.6728333 C24.1780974,8.22220276 26.672605,5.19024467 26.6977905,5.16006071 C26.97464,4.82670007 26.5449604,4.36916496 26.1956072,4.62515537 C23.4688971,6.62302683 21.2073552,7.63590826 19.4737545,7.63590826 C18.0900793,7.63590826 17.0649156,6.97931198 16.4268834,5.68445896 C15.9288978,4.67386997 15.8588745,3.63806397 15.8583021,3.62813006 C15.8331166,3.211668 15.2425934,3.15225534 15.1332654,3.55305224 C14.3706414,6.35309068 13.1100316,7.77288227 11.3863525,7.77288227 C8.65124718,7.77288227 5.60418533,4.33955411 5.5738483,4.30497632 C5.44086129,4.1534835 5.21132999,4.13648116 5.05773667,4.26676879 C4.90414339,4.39705647 4.88296473,4.62649264 5.01003691,4.78276139 C6.03500975,6.04093518 6.55455574,7.22918918 6.55455574,8.31447389 C6.55455574,11.4043164 2.29477473,12.8705301 2.25203573,12.8848579 C1.95057313,12.9855348 1.90897895,13.3970298 2.18468365,13.5559731 C4.3468192,14.8028756 5.44315092,16.2660328 5.44315092,17.9047535 Z" id="Path"></path>
                <path d="M26.706398,13.6292072 C25.4184158,13.3634851 24.5852295,12.8307134 24.2298184,12.0460652 C24.1461359,11.8611409 23.9268764,11.7782568 23.7399792,11.8613305 C23.5532734,11.9442146 23.4697825,12.1613821 23.5534649,12.3464961 C23.8841734,13.0768998 24.5025045,13.6309141 25.3977345,14.0015215 C24.1838601,14.5830374 23.4446969,15.618424 23.4446969,17.0422465 C23.4446969,18.0142847 23.7901504,19.1481079 24.4735891,20.4238013 C20.6812607,18.7640343 17.1409372,19.7438488 15.0077046,23.9132761 C13.9711527,21.1354281 11.9666035,18.7691553 8.96360945,19.019704 C8.75947784,19.036774 8.60819835,19.2143014 8.62524122,19.4164853 C8.64247562,19.6184795 8.8219046,19.768695 9.02584468,19.7514354 C10.9595415,19.58984 12.3834838,20.6766261 13.4129505,22.3238751 C14.2405834,23.6479334 14.5808666,24.9979758 14.584122,25.0112525 C14.6685704,25.3543582 15.147686,25.3913431 15.2857525,25.0668246 C16.6022673,21.9716654 18.5574113,20.4021794 21.0968006,20.4021794 C23.3296096,20.4021794 25.2296036,21.6475262 25.2481784,21.6600442 C25.5802274,21.8813844 25.9838948,21.4920001 25.7675076,21.1574293 C24.7181257,19.5344575 24.1859665,18.1498959 24.1859665,17.0422465 C24.1859665,14.7313562 26.5802041,14.3666285 26.6813124,14.3524035 C27.091682,14.2964521 27.1117888,13.7128498 26.706398,13.6292072 L26.706398,13.6292072 Z" id="Path"></path>
                <path d="M6.64769841,3.18584682 C7.99791795,3.14736101 9.1227246,3.60684663 9.98862624,4.55101926 C10.6420979,5.26369085 10.9013792,6.00371277 10.9072121,6.02031832 C10.959708,6.17601985 11.10045,6.27350427 11.2509762,6.27350427 C11.5012259,6.27350427 11.6771533,6.01660647 11.5949284,5.77103955 C11.5828863,5.73548414 11.2936879,4.88840519 10.5389875,4.05480604 C9.83998169,3.28254976 8.59437783,2.37393259 6.62775372,2.42980539 C6.42680132,2.43547081 6.26818438,2.60934082 6.27364094,2.81818015 C6.27928569,3.02701953 6.44580523,3.19131689 6.64769841,3.18584682 Z" id="Path"></path>
                <path d="M22.3188711,4.77099048 C23.8199094,5.05130875 25.1519239,4.53958295 26.1921439,3.36920597 C26.9717854,2.49190651 27.3216343,1.54385087 27.3361003,1.50383306 C27.4065269,1.30993016 27.3088814,1.0947617 27.1179682,1.02323224 C26.927055,0.951702785 26.7152042,1.05087743 26.6447775,1.24478029 C26.6325956,1.2782252 25.3946102,4.58404724 22.4521105,4.03481677 C22.2520609,3.99750546 22.0600057,4.13205822 22.0232696,4.33524063 C21.9863433,4.53861634 22.1188214,4.73367916 22.3188711,4.77099048 L22.3188711,4.77099048 Z" id="Path"></path>
                <path d="M26.2070379,24.99225 C24.3698403,24.963943 22.8427142,24.4667895 21.6678985,23.5150368 C20.7941305,22.8071742 20.4504599,22.0957498 20.4448921,22.084127 C20.3598384,21.9022874 20.1401964,21.821678 19.9535776,21.904162 C19.7665747,21.9868335 19.683633,22.2016667 19.7681107,22.3842563 C19.7840462,22.4185621 20.1674597,23.2306544 21.1587285,24.0453713 C22.0611037,24.7867899 23.6671396,25.6787417 26.1951343,25.7179487 C26.4044085,25.7203586 26.569524,25.55839 26.5726496,25.3609909 C26.5760518,25.1605923 26.4122803,24.9956243 26.2070379,24.99225 L26.2070379,24.99225 Z" id="Path"></path>
                <path d="M7.0369474,21.4736552 C6.84756411,21.39401 6.629533,21.4828671 6.5495498,21.6717124 C6.54589671,21.6809244 6.15501728,22.592717 5.29058345,23.5853063 C4.1456316,24.9005062 2.75380852,25.7299669 1.15356767,26.0504666 C0.952071531,26.0909608 0.821522063,26.286715 0.862090478,26.4878429 C0.902466589,26.6883951 1.09781018,26.8194737 1.30026764,26.7789795 C3.04932341,26.4285409 4.62995297,25.485466 5.87065391,24.051662 C6.8054576,22.971751 7.2188323,22.0000806 7.23594408,21.9593944 C7.31535047,21.7703572 7.22613843,21.5531084 7.0369474,21.4736552 L7.0369474,21.4736552 Z" id="Path"></path>
                <path d="M12.0245226,25.0042985 L11.0533373,24.8640315 L10.6191514,23.9901624 C10.3991919,23.5473438 9.76320127,23.5475337 9.54324175,23.9901624 L9.10886472,24.8640315 L8.13787052,25.0042985 C7.6392829,25.0760453 7.45372191,25.6801994 7.80535137,26.0205224 L8.508037,26.7007889 C8.32668025,27.751178 8.33336887,27.693287 8.33336887,27.763895 C8.33336887,28.2095606 8.81303728,28.4986359 9.2126336,28.289659 L10.0811966,27.8362113 C11.0204676,28.3264814 11.0382403,28.3585588 11.228961,28.3585588 C11.5968342,28.3585588 11.8838709,28.0303833 11.8202335,27.6615893 L11.6543562,26.7009787 L12.3570418,26.0207122 C12.7086713,25.6803892 12.5231103,25.0762351 12.0245226,25.0042985 L12.0245226,25.0042985 Z M11.0430178,27.5082257 C9.94990886,26.9374776 10.2065602,26.9405145 9.11918426,27.5082257 C9.32653096,26.3069404 9.41271841,26.5506519 8.52466292,25.6908285 C9.74982404,25.5139289 9.53750864,25.661978 10.0811966,24.5677435 C10.6290888,25.6703294 10.4219332,25.5154473 11.6377302,25.6908285 C10.748337,26.5519806 10.8358622,26.308269 11.0430178,27.5082257 L11.0430178,27.5082257 Z" id="Shape"></path>
                <path d="M0.692819595,8.76769208 C0.55715256,9.54401519 0.561067915,9.50614104 0.561067915,9.56939271 C0.561067915,9.98062479 1.0083972,10.2490119 1.38309669,10.055604 L2.02991332,9.72165816 C2.71979886,10.0779055 2.75993123,10.1192402 2.93768834,10.1192402 C3.28282689,10.1192402 3.55004985,9.81432479 3.49053646,9.47499586 L3.367007,8.76769208 C3.89009841,8.26686951 4.05982906,8.17074233 4.05982906,7.87332483 C4.05982906,7.59667081 3.85779675,7.36692684 3.57941499,7.32713023 L2.85624896,7.22408189 L2.53284065,6.58041432 C2.32708873,6.17110481 1.7325421,6.17129705 1.526986,6.58041432 L1.20357763,7.22408189 L0.480215848,7.32713023 C0.0131139828,7.39403474 -0.158378552,7.95272587 0.169532424,8.26667721 L0.692819595,8.76769208 Z M2.02991332,7.26137921 C2.3801418,7.95810899 2.32121573,7.89966367 3.07550884,8.0073261 C2.50934852,8.54929114 2.54693592,8.47450421 2.67614264,9.2144912 C1.98508247,8.85766712 2.06534727,8.86266576 1.38368396,9.2144912 C1.5123034,8.47738799 1.5534146,8.55236721 0.984317755,8.0073261 C1.75936227,7.89677989 1.6877113,7.94234416 2.02991332,7.26137921 Z" id="Shape"></path>
                <path d="M17.2229147,3.13530068 C17.0876464,3.91035736 17.09117,3.87382531 17.09117,3.93727572 C17.09117,4.24049193 17.3427181,4.48717949 17.6520146,4.48717949 C17.8303494,4.48717949 17.8710669,4.44526377 18.5599366,4.08955677 C19.2505682,4.44603287 19.2901112,4.48717949 19.467663,4.48717949 C19.812783,4.48717949 20.0799917,4.18204062 20.0204815,3.84286916 L19.8969587,3.13530068 C20.420022,2.63461912 20.5897436,2.53848205 20.5897436,2.24103414 C20.5897436,1.96415952 20.3877221,1.73458428 20.1093553,1.69478359 L19.386228,1.5915324 C19.3836831,1.5865333 19.0628371,0.9477989 19.0628371,0.9477989 C18.8570962,0.538639736 18.2625814,0.538831998 18.0570363,0.947991162 L17.7336453,1.5915324 L17.0105181,1.69478359 C16.5432455,1.76131039 16.3713707,2.32044331 16.6994598,2.63442681 L17.2229147,3.13530068 Z M18.5599366,1.62883359 C18.8972264,2.30025454 18.8206853,2.26295336 19.6054761,2.37504913 C19.0283838,2.92764471 19.0781061,2.8491969 19.2061314,3.58233786 C18.5151082,3.22547724 18.5949772,3.23047634 17.913742,3.58233786 C18.0407885,2.85381148 18.0930556,2.9291829 17.5142015,2.37504913 C18.2700202,2.26718341 18.2097269,2.32582698 18.5599366,1.62883359 L18.5599366,1.62883359 Z" id="Shape"></path>
                <path d="M9.36175418,12.8862778 C9.36175418,11.7470128 8.52279459,11.6153846 7.89194901,11.6153846 L6.82610801,11.6153846 C6.62970043,11.6153846 6.48717949,11.7464455 6.48717949,11.927056 L6.48717949,16.4319183 C6.48717949,16.6096921 6.63285929,16.7435897 6.82610801,16.7435897 L8.04784871,16.7435897 C8.9704255,16.7435897 9.47863248,16.20781 9.47863248,15.2345932 C9.47863248,14.7124302 9.40988051,14.2632678 8.95333042,13.9646457 C9.21291552,13.7371332 9.36175418,13.3532175 9.36175418,12.8862778 L9.36175418,12.8862778 Z M7.19736855,12.3117281 C8.04710544,12.3117281 8.64506159,12.2014706 8.64506159,12.9326124 C8.64506159,13.7620971 8.12905032,13.6395467 7.19736855,13.6395467 L7.19736855,12.3117281 Z M7.99600601,16.0474353 L7.19736855,16.0474353 L7.19736855,14.3094133 C8.27175706,14.3094133 8.76193989,14.1685182 8.76193989,15.2147356 C8.76193989,15.782855 8.51852081,16.0474353 7.99600601,16.0474353 Z" id="Shape"></path>
                <path d="M10.1196581,13.158763 L10.1196581,15.1936429 C10.1196581,16.1787102 10.6648425,16.7435897 11.6154775,16.7435897 C12.5659267,16.7435897 13.1111111,16.1787102 13.1111111,15.1936429 L13.1111111,13.158763 C13.1111111,12.1778244 12.5659267,11.6153846 11.6154775,11.6153846 C10.6648425,11.6153846 10.1196581,12.1778244 10.1196581,13.158763 L10.1196581,13.158763 Z M12.3946043,13.158763 L12.3946043,15.1936429 C12.3946043,15.7716592 12.1396647,16.0525976 11.6154775,16.0525976 C11.0912904,16.0525976 10.8365365,15.7716592 10.8365365,15.1936429 L10.8365365,13.158763 C10.8365365,12.5852508 11.0912904,12.3063767 11.6154775,12.3063767 C12.1396647,12.3063767 12.3946043,12.5852508 12.3946043,13.158763 L12.3946043,13.158763 Z" id="Shape"></path>
                <path d="M15.2479562,11.6153846 C14.2973211,11.6153846 13.7521368,12.1778038 13.7521368,13.1587066 L13.7521368,15.193512 C13.7521368,16.1785432 14.2973211,16.7435897 15.2479562,16.7435897 C16.1984054,16.7435897 16.7435897,16.1785432 16.7435897,15.193512 L16.7435897,13.1587066 C16.7435897,12.1778038 16.1984054,11.6153846 15.2479562,11.6153846 L15.2479562,11.6153846 Z M16.0268972,15.193512 C16.0268972,15.7715071 15.7721433,16.0524352 15.2479562,16.0524352 C14.723769,16.0524352 14.4688293,15.7715071 14.4688293,15.193512 L14.4688293,13.1587066 C14.4688293,12.5852153 14.723769,12.3063514 15.2479562,12.3063514 C15.7721433,12.3063514 16.0268972,12.5850277 16.0268972,13.1587066 L16.0268972,15.193512 Z" id="Shape"></path>
                <path d="M20.8733972,16.7435897 C21.0804431,16.7435897 21.2307692,16.6095079 21.2307692,16.4251217 L21.2307692,11.9733775 C21.2307692,11.7558964 21.0904525,11.6153846 20.8733972,11.6153846 C20.5977685,11.6153846 20.4557836,11.8937605 20.4024002,11.9987188 L19.4146226,13.9437565 L18.426845,11.9985296 C18.3734616,11.8937605 18.2314766,11.6153846 17.9558479,11.6153846 C17.7386073,11.6153846 17.5982906,11.7558964 17.5982906,11.9733775 L17.5982906,16.4251217 C17.5982906,16.8508174 18.3132199,16.8472242 18.3132199,16.4251217 L18.3132199,13.2862071 L19.1128583,14.8535842 C19.2737498,15.1612727 19.5684705,15.1240172 19.709714,14.8535842 L20.5158399,13.2979321 L20.5158399,16.4251217 C20.5158399,16.6066712 20.6695024,16.7435897 20.8733972,16.7435897 L20.8733972,16.7435897 Z" id="Path"></path>
                <path d="M22.515891,16.7435897 C22.7458222,16.7435897 22.9401709,16.5493638 22.9401709,16.3193548 C22.9401709,16.0820466 22.7497959,15.8888889 22.515891,15.8888889 C22.2745807,15.8888889 22.0854701,16.0779521 22.0854701,16.3193548 C22.0854701,16.5532804 22.278735,16.7435897 22.515891,16.7435897 L22.515891,16.7435897 Z" id="Path"></path>
                <path d="M22.4059829,15.4615385 C22.5829603,15.4615385 22.7264957,15.2946496 22.7264957,15.08864 L22.7264957,11.9884758 C22.7264957,11.7824662 22.5829603,11.6153846 22.4059829,11.6153846 C22.2290055,11.6153846 22.0854701,11.7824662 22.0854701,11.9884758 L22.0854701,15.08864 C22.0854701,15.2946496 22.2290055,15.4615385 22.4059829,15.4615385 Z" id="Path"></path>
            </g>
        </g>
    </g>
</svg>