<?xml version="1.0" encoding="UTF-8"?>
<svg width="33px" height="22px" viewBox="0 0 33 22" version="1.1" xmlns="http://www.w3.org/2000/svg" xmlns:xlink="http://www.w3.org/1999/xlink">
    <title>icon-neutrals</title>
    <defs>
        <filter id="filter-1">
            <feColorMatrix in="SourceGraphic" type="matrix" values="0 0 0 0 0.600000 0 0 0 0 0.600000 0 0 0 0 0.600000 0 0 0 1.000000 0"></feColorMatrix>
        </filter>
    </defs>
    <g id="Symbols" stroke="none" stroke-width="1" fill="none" fill-rule="evenodd">
        <g id="Tab-4" transform="translate(-7.000000, -9.000000)" filter="url(#filter-1)">
            <g id="icon-neutrals" transform="translate(7.750000, 9.000000)" fill="#808080" fill-rule="nonzero">
                <path d="M31.2062774,5.55367422 L25.3139436,5.55367422 C25.3012483,5.38668204 25.2865999,5.21895742 25.2707307,5.05050043 C25.239969,4.73067619 24.9958284,4.47042233 24.6777132,4.41890864 C23.8151644,4.27779533 22.923807,4.02999266 22.0287875,3.68111573 C21.7826938,3.5849243 21.50535,3.70675048 21.4096469,3.95284422 C21.3139438,4.19893796 21.4357699,4.4762817 21.6818637,4.5717407 C22.5744418,4.91988518 23.4662875,5.17501211 24.3359163,5.33052967 C25.4526155,18.3976678 17.9775181,22.7658317 12.728739,19.6850214 C13.1742956,19.8578728 13.6364539,19.6796502 13.850321,19.3996209 L18.0527134,13.9074336 C18.2133579,13.697961 18.1735631,13.397668 17.9636021,13.2372677 C17.7538853,13.0766231 17.4538365,13.1166622 17.2934361,13.326379 C17.2804967,13.3432247 13.1137488,18.7980584 13.0925086,18.7980584 C13.0624793,18.7980584 13.0231726,18.7629022 13.0231726,18.7421503 C13.0231726,18.7289666 15.654276,13.2201779 15.6601354,13.2082149 C15.9521276,12.5963986 15.5024205,11.8947384 14.831278,11.8947384 L12.372782,11.8947384 C17.6508579,3.64473873 17.7248326,3.47652587 17.7248326,3.71846923 C17.7248326,3.73604736 15.841776,9.04488502 15.8359166,9.06148658 C15.6222936,9.66231662 16.0717565,10.2865842 16.701151,10.2865842 L19.6193637,10.2865842 L18.4555454,11.8073361 C18.295145,12.0170529 18.33494,12.3173458 18.5446568,12.4777462 C18.7546177,12.6383908 19.0546665,12.5983517 19.2150669,12.3886349 C20.5209751,10.682092 20.6157016,10.6498655 20.6157016,10.2504513 C20.6157016,9.74312718 20.2033481,9.33028539 19.6965122,9.33028539 L16.755106,9.33028539 C18.7844028,3.60323486 18.6811314,3.96968991 18.6811314,3.71871336 C18.6811314,2.74312746 17.3715611,2.31661379 16.8115025,3.18233644 C11.065409,12.1637814 11.3840125,11.5546505 11.3840125,11.9318478 C11.3840125,12.4386837 11.7963661,12.8510372 12.3029578,12.8510372 L14.7709753,12.8510372 C11.9504187,18.7611933 12.0666297,18.4208612 12.0666297,18.7423944 C12.0666297,19.031701 12.1982215,19.2965936 12.4032996,19.483117 C8.1254677,16.672082 7.20163961,10.4801877 7.65305565,5.33687735 C11.1462196,4.73238519 14.0807898,2.70626221 15.9870397,1.0397584 C17.2155553,2.11910404 18.5290318,3.03145751 19.894022,3.75264892 C20.1279087,3.87569579 20.416727,3.78634029 20.5405063,3.55294186 C20.6635532,3.31978762 20.5741977,3.03023682 20.3410434,2.90645751 C18.9836216,2.18990479 17.6779576,1.27315683 16.4609166,0.18111587 C16.1916295,-0.0593626829 15.7870885,-0.0608274954 15.5178014,0.179162745 C13.6803992,1.81563724 10.7656043,3.88082272 7.31443261,4.42379145 C6.99314356,4.47432858 6.74778225,4.73507075 6.71775294,5.05758049 C6.70237207,5.22335198 6.68845607,5.38912342 6.67624901,5.55367422 L0.793680924,5.55367422 C0.355692629,5.55367422 -2.08614704e-05,5.91011952 -2.08614704e-05,6.34810775 C-2.08614704e-05,6.70894761 -0.00929760642,6.60396712 2.22434493,9.51094944 C2.3735148,9.70528537 2.60886642,9.82076387 2.85373941,9.82076387 L3.89866124,9.82076387 C4.16257723,9.82076387 4.3766886,9.60714087 4.3766886,9.34273657 C4.3766886,9.07857639 4.16257723,8.86446509 3.89866124,8.86446509 L2.93406165,8.86446509 L1.1247356,6.509973 L6.6183877,6.509973 C6.58030176,7.34517809 6.58152251,8.14815656 6.6139932,8.86446509 L5.82029204,8.86446509 C5.55613192,8.86446509 5.34202056,9.07857639 5.34202056,9.34273657 C5.34202056,9.60714087 5.55613192,9.82076387 5.82029204,9.82076387 L6.67380763,9.82076387 C6.69114163,10.0268186 6.710917,10.230676 6.73386625,10.4328244 L3.95920811,10.4328244 C3.30124914,10.4328244 2.92966715,11.1877072 3.33054601,11.709924 L5.38987212,14.3900997 C5.53904205,14.5846797 5.7743936,14.7006465 6.01902253,14.7006465 L7.70798728,14.7006465 C7.78391502,14.9084102 7.86472558,15.1125117 7.94895408,15.312707 L7.12522361,15.312707 C6.46824126,15.312707 6.09543853,16.0673457 6.49607326,16.5890742 L8.55588762,19.2699822 C8.70505755,19.4638299 8.93967667,19.5797967 9.18454972,19.5797967 L10.9487098,19.5797967 C14.0295202,22.2379998 18.1596471,22.2777946 21.2248324,19.5797967 L22.8154086,19.5797967 C23.0602816,19.5797967 23.295389,19.4638299 23.4440707,19.2699822 L25.503885,16.5890742 C25.9042756,16.067834 25.5324495,15.312707 24.8747347,15.312707 L24.1352327,15.312707 C24.2160433,15.1125117 24.2931917,14.9084102 24.3659456,14.7006465 L25.9809357,14.7006465 C26.2255647,14.7006465 26.4609162,14.5846797 26.6100862,14.3900997 L28.6694123,11.7091915 C29.0707794,11.1877072 28.6977325,10.4328244 28.0407502,10.4328244 L25.2858675,10.4328244 C25.3068635,10.230676 25.32493,10.0268186 25.3407991,9.82076387 L29.1462189,9.82076387 C29.3910919,9.82076387 29.6264435,9.70479712 29.7756133,9.51094944 C31.993875,6.62374255 31.9999791,6.71138899 31.9999791,6.34810775 C31.9999791,5.91011952 31.6442656,5.55367422 31.2062774,5.55367422 Z M6.09934478,13.7443477 L4.29001866,11.3891232 L6.86130762,11.3891232 C6.99192287,12.2135861 7.16794824,12.9997189 7.38987204,13.7443477 L6.09934478,13.7443477 Z M9.26487197,18.6234979 L7.45603416,16.2690059 L8.39524313,16.2690059 C9.0046181,17.4518671 9.76072157,18.397912 9.98606338,18.6234979 L9.26487197,18.6234979 Z M24.5439241,16.2690059 L22.7350863,18.6234979 L22.1657504,18.6234979 C22.7580355,17.9311152 23.2731722,17.1430292 23.706766,16.2690059 L24.5439241,16.2690059 Z M27.7099396,11.3891232 L25.9006135,13.7443477 L24.6694124,13.7443477 C24.8798616,13.0002071 25.0461213,12.2140743 25.1672151,11.3891232 L27.7099396,11.3891232 Z M29.0658966,8.86446509 L25.3930451,8.86446509 C25.4216096,8.08419168 25.4137971,7.29634997 25.3757112,6.509973 L30.8752227,6.509973 L29.0658966,8.86446509 Z" id="Shape"></path>
            </g>
        </g>
    </g>
</svg>