<?xml version="1.0" encoding="UTF-8"?>
<svg width="20px" height="29px" viewBox="0 0 20 29" version="1.1" xmlns="http://www.w3.org/2000/svg" xmlns:xlink="http://www.w3.org/1999/xlink">
    <title>icon-bads</title>
    <g id="Symbols" stroke="none" stroke-width="1" fill="none" fill-rule="evenodd">
        <g id="Bars/Tab-Bars/tab-1" transform="translate(-178.000000, -5.000000)" fill="#808080" fill-rule="nonzero">
            <g id="icon-bads" transform="translate(178.000000, 5.000000)">
                <path d="M16.2467717,17.6571109 C16.1927514,12.3269628 8.7827135,9.53620006 4.40276342,13.2599432 C2.56521179,14.8220127 1.76631372,17.2027807 2.77698865,19.8213671 C2.86049416,20.0378788 3.10390843,20.1457042 3.3202049,20.0621987 C3.53693179,19.978478 3.64454204,19.7352789 3.56103647,19.5187672 C1.78051824,14.9046574 6.58057851,11.5065427 10.8049242,12.5794163 C11.2717372,12.6986484 15.3675964,13.855458 15.4063361,17.6655045 C15.4142992,19.354554 14.5280217,21.055656 13.3060003,22.2008436 C13.1021867,22.3917441 12.985322,22.6627066 12.985322,22.9489498 L12.994146,24.9655647 L12.994146,24.9692235 C12.994146,25.0705923 12.9117166,25.1532369 12.8094869,25.1532369 L11.1305527,25.147426 L11.1305527,22.8355286 C11.1305527,22.6033058 10.9424501,22.4152032 10.7102273,22.4152032 C10.4782197,22.4152032 10.2901171,22.6033058 10.2901171,22.8355286 L10.2901171,25.1444129 L8.29136534,25.1375258 L8.29136534,22.8355286 C8.29136534,22.6033058 8.10326275,22.4152032 7.87103994,22.4152032 C7.6390324,22.4152032 7.45092975,22.6033058 7.45092975,22.8355286 L7.45092975,25.1345127 L5.88240358,25.1291322 C5.78146523,25.1287018 5.69925102,25.0462724 5.69925102,24.9451188 L5.69925102,22.9162363 C5.69925102,22.1849174 5.18100033,22.2144025 4.29881201,20.9176997 C4.16817322,20.7257231 3.90668044,20.6760072 3.71470386,20.8064308 C3.52294248,20.9370695 3.47322656,21.1985623 3.60365014,21.3905389 C3.95015493,21.8997504 4.35369317,22.3689308 4.8032886,22.785167 C4.83836948,22.8178805 4.85860022,22.8654442 4.85860022,22.9162363 L4.85860022,24.9451188 C4.85860022,25.5079201 5.3165892,25.9676309 5.87960573,25.9695678 L12.8101326,25.9938877 C13.3750861,25.9938877 13.8345816,25.534177 13.8345816,24.9743888 C13.8345816,24.9718061 13.8347968,24.9677169 13.8347968,24.9649191 C13.8253272,22.787104 13.8033747,22.886751 13.8806388,22.8142218 C15.2929149,21.4908316 16.2564566,19.6016271 16.2467717,17.6571109 Z" id="Path"></path>
                <path d="M13.7394542,26.5661587 C11.8831784,27.4285468 10.3873967,27.367209 9.48433196,27.367209 C5.13214534,27.367209 1.01971416,24.0754132 0.843233499,18.713843 C0.784047879,16.6877582 1.70734331,13.0774363 2.252927,11.137655 C3.17191802,12.907197 6.03542529,12.9325929 6.76609851,10.7509039 C7.05858298,9.87797003 7.26584022,8.9820076 7.38205923,8.0881973 C7.41197488,7.85812672 7.24969868,7.64721074 7.0196281,7.6172951 C6.78955752,7.5873795 6.57864154,7.74965565 6.54851069,7.97972623 C6.43917873,8.81994661 6.24418904,9.66231923 5.96913741,10.4840306 C5.41752755,12.1311123 2.94722799,11.9197658 2.81357609,10.0040892 C2.77096248,9.39480028 1.91460055,9.30483813 1.74070248,9.88507229 C1.07201273,12.1203512 -0.0639204408,16.4015152 0.0030130854,18.7325672 C0.0060261708,23.9579029 4.25813532,28.2078598 9.48433196,28.2078598 C10.332946,28.2078598 12.0239325,28.2902893 14.0937069,27.3286846 C14.3041925,27.2309745 14.395446,26.9808884 14.2977359,26.7704029 C14.2000258,26.5599174 13.9499397,26.4684487 13.7394542,26.5661587 L13.7394542,26.5661587 Z" id="Path"></path>
                <path d="M19.9545885,15.2223226 C19.9464101,14.6812586 19.2514635,14.4862689 18.953168,14.9205837 C18.5717975,15.475637 18.1226326,15.9885072 17.6188017,16.444344 C17.4713757,16.5779959 17.247116,16.422822 17.3168474,16.2390237 C18.5862173,12.9074122 18.5504907,9.43138777 15.9618199,6.9582903 C15.5864755,6.59973311 14.9610451,6.91868975 15.0408919,7.43780132 C15.1312844,8.02793559 15.1207386,8.6843578 14.9797693,9.30117939 C14.8990617,9.65306474 14.3995351,9.625947 14.3442235,9.27836606 C13.6482008,4.89841598 10.3249828,2.16963669 6.4178719,0.0669335537 C6.00443355,-0.155604353 5.52018766,0.210915978 5.62263256,0.669335427 C5.83785295,1.63072485 6.66365355,3.58901515 6.65698176,6.35588843 C6.65590567,6.58875691 6.84443868,6.77793559 7.07730716,6.77793559 C7.30845388,6.77793559 7.49655647,6.59090909 7.49741736,6.35933196 C7.50193697,4.45721421 7.16662364,2.96444562 6.62448347,1.14109851 C10.8559315,3.53886882 12.9894111,6.10816975 13.5141185,9.41029614 C13.7155647,10.6766529 15.5148072,10.7317493 15.7991133,9.48863636 C15.8983299,9.05410639 15.9428805,8.60881543 15.9396522,8.17062672 C17.7317923,10.3811553 17.5443354,13.2814652 16.5315083,15.9398674 C16.1473399,16.9483901 17.3870093,17.7875344 18.1826791,17.0678375 C18.4798984,16.7990272 18.7594697,16.5119232 19.0196711,16.2095386 L18.7058798,19.5377066 C18.4704287,22.0334022 17.1644714,24.3013946 15.1224604,25.7601584 C14.9334969,25.8951016 14.8898072,26.1576705 15.0247504,26.3464187 C15.1596936,26.5355975 15.4222624,26.579072 15.6110107,26.4441288 C17.8512397,24.84375 19.2843922,22.3551567 19.5426567,19.6164772 C19.9780475,15.0008609 19.9552342,15.257834 19.9545885,15.2223226 L19.9545885,15.2223226 Z" id="Path"></path>
                <path d="M8.85524275,18.9669421 C9.33733642,18.6200069 9.12921829,17.8529614 8.53004474,17.8084108 C6.90900485,17.6883179 5.48661328,16.166064 4.95028408,15.5171746 C4.58828342,15.0787707 3.86643421,15.2937758 3.81800964,15.8725035 C3.42759989,20.5232008 5.73734501,21.2084625 8.85524275,18.9669421 L8.85524275,18.9669421 Z M4.62379477,16.4236829 C5.35855713,17.231405 6.53645835,18.2687672 7.94270832,18.5707214 C5.46552171,20.1547435 4.48949725,19.3252841 4.62379477,16.4236829 Z" id="Shape"></path>
                <path d="M14.7634728,15.8725035 C14.714833,15.2937758 13.993199,15.0789859 13.6311983,15.5171746 C13.0948691,16.166064 11.6724776,17.6885331 10.0512225,17.808626 C9.44882061,17.8533918 9.24629818,18.6215134 9.72645488,18.9669421 C12.6885331,21.0965479 15.1693785,20.7110882 14.7634728,15.8725035 L14.7634728,15.8725035 Z M13.9574725,16.4236829 C14.0924156,19.3371212 13.1067063,20.1489325 10.6385589,18.5707214 C12.0450241,18.2687672 13.2227101,17.231405 13.9574725,16.4236829 Z" id="Shape"></path>
            </g>
        </g>
    </g>
</svg>