<?xml version="1.0" encoding="UTF-8"?>
<svg width="20px" height="28px" viewBox="0 0 20 28" version="1.1" xmlns="http://www.w3.org/2000/svg" xmlns:xlink="http://www.w3.org/1999/xlink">
    <title>icon-you</title>
    <g id="Symbols" stroke="none" stroke-width="1" fill="none" fill-rule="evenodd">
        <g id="Bars/Tab-Bars/tab-1" transform="translate(-327.000000, -6.000000)" fill="#999999" fill-rule="nonzero">
            <g id="icon-you" transform="translate(327.000000, 6.000000)">
                <path d="M18.9297084,12.8979558 C18.7047587,12.8979558 18.522118,13.0805965 18.522118,13.3057557 L18.522118,18.2820878 C18.522118,22.8269521 12.0526139,26.6376927 9.98931802,26.6376927 C8.79817362,26.6376927 5.82188338,25.2530161 3.68109083,22.998492 C3.52609753,22.8355395 3.26784515,22.8284182 3.10489276,22.9838305 C2.94173088,23.1388237 2.9346096,23.3970761 3.09002177,23.560238 C5.26851539,25.8543482 8.47415383,27.4530831 9.98931802,27.4530831 C11.3080177,27.4530831 13.6450654,26.3354558 15.5466655,24.795367 C16.9623408,23.6488354 19.3375084,21.2780664 19.3375084,18.2820878 L19.3375084,13.3057557 C19.3375084,13.0805965 19.1548676,12.8979558 18.9297084,12.8979558 Z" id="Path"></path>
                <path d="M6.1278904,15.4727295 L9.02102885,13.9271951 C9.71430965,13.5885137 9.67241957,12.5919487 8.96426777,12.3052112 L3.51771952,10.0984417 C3.41048091,10.0550855 3.29800601,10.0328837 3.18364611,10.0328837 C2.69374161,10.0328837 2.29536697,10.4318868 2.29536697,10.9222101 L2.29536697,13.3667057 C2.29536697,13.8245643 2.56346349,14.2455597 2.97838472,14.4393013 L5.24400971,15.4963974 C5.52509217,15.6277228 5.85309147,15.6195543 6.1278904,15.4727295 L6.1278904,15.4727295 Z M3.11075737,13.3667057 L3.11075737,10.9222101 C3.11075737,10.8692192 3.16353887,10.8346598 3.21171249,10.8543482 L8.65805126,13.0609082 C8.71837298,13.0854139 8.72046751,13.167309 8.66182139,13.1951659 C8.64799764,13.2016589 5.75716322,14.7461461 5.74375839,14.7534769 C5.6960037,14.7788204 5.63756702,14.7802865 5.58876509,14.7576659 L3.32314005,13.7003603 C3.19411861,13.6400386 3.11075737,13.509132 3.11075737,13.3667057 Z" id="Shape"></path>
                <path d="M13.8507456,15.4727295 C14.1240784,15.6187165 14.4522872,15.6283512 14.7346263,15.4963974 L17.0002514,14.4393013 C17.4151726,14.2455597 17.6832691,13.8245643 17.6832691,13.3667057 L17.6832691,10.9222101 C17.6832691,10.2967912 17.0492627,9.86008713 16.4607071,10.0984417 L11.0143683,12.3050017 C10.3047503,12.5923676 10.2653737,13.5889327 10.9576072,13.9271951 L13.8507456,15.4727295 Z M11.3203753,13.0609082 L11.3205848,13.0609082 C11.3398542,13.0529491 16.7738354,10.8484836 16.7947805,10.8484836 C16.824313,10.8484836 16.8676692,10.871942 16.8676692,10.9222101 L16.8676692,13.3667057 C16.8676692,13.509132 16.784308,13.6400386 16.6552865,13.7003603 C14.2072302,14.8427027 14.3416974,14.8104474 14.2348777,14.7534769 L11.334199,13.2041722 C11.3285439,13.2010305 11.3226793,13.1980982 11.3166053,13.1951659 C11.2581686,13.167309 11.2600536,13.0854139 11.3203753,13.0609082 Z" id="Shape"></path>
                <path d="M9.43448391,25.219504 C9.79536697,25.3294655 10.1780328,25.3298844 10.5410104,25.219504 C12.7955345,24.5346012 16.5413455,21.8842158 17.1359752,19.022495 C17.1944118,18.7407842 17.0576408,18.4483914 16.8031585,18.3114108 L10.445501,14.8917142 C10.1614863,14.7388153 9.82050102,14.7356736 9.53376343,14.8833361 L3.15914043,18.1622821 C2.90486761,18.2931887 2.76474531,18.5698727 2.81040547,18.8511646 C3.28774295,21.7916387 7.16048091,24.5264327 9.43448391,25.219504 L9.43448391,25.219504 Z M10.0592745,15.6097101 L16.3111595,18.9728552 C15.705429,21.4479306 12.2844755,23.8377597 10.304122,24.4393013 C10.0969755,24.5023458 9.87851877,24.5023458 9.67221013,24.4395107 C7.5016756,23.7780664 4.12282172,21.252304 3.63605898,18.834199 C10.4128268,15.3481066 9.9488941,15.5504357 10.0592745,15.6097101 Z" id="Shape"></path>
                <path d="M9.98931802,19.3802362 C11.0231652,19.3802362 11.864318,18.5390834 11.864318,17.5052362 C11.864318,17.2800771 11.6816773,17.0976458 11.4565181,17.0976458 C11.2313589,17.0976458 11.0489276,17.2800771 11.0489276,17.5052362 C11.0489276,18.0896029 10.5734752,18.5648458 9.98931802,18.5648458 C9.40495142,18.5648458 8.92970842,18.0896029 8.92970842,17.5052362 C8.92970842,17.2800771 8.74706767,17.0976458 8.52190853,17.0976458 C8.29674933,17.0976458 8.11431802,17.2800771 8.11431802,17.5052362 C8.11431802,18.5390834 8.95547083,19.3802362 9.98931802,19.3802362 L9.98931802,19.3802362 Z" id="Path"></path>
                <path d="M18.8107406,4.27823389 C18.4475536,4.27823389 18.3246062,4.3915466 17.5810573,4.81275131 C16.3959869,3.16605228 14.6889662,1.91898456 12.704633,1.31555796 L12.704633,1.15030161 C12.704633,0.681761072 12.3709786,0.276055657 11.9114444,0.185991957 C10.6782004,-0.0563421448 9.35740617,-0.0682808579 8.06530665,0.188086434 C7.60661024,0.278778499 7.27379357,0.684483914 7.27379357,1.15239614 L7.27379357,1.31555796 C5.28966992,1.91898456 3.58264912,3.16605228 2.39757877,4.81275131 L1.80713807,4.47825903 C1.61632874,4.34735255 1.39556804,4.27823389 1.16789544,4.27823389 C0.538287507,4.27823389 0.0268096515,4.78992123 0.0268096515,5.41827244 L0.0268096515,6.99543399 C0.0268096515,7.48031164 0.334492279,7.91240783 0.792769759,8.07117126 L0.892258713,8.10594 C0.728049598,8.79796413 0.641127668,9.51993968 0.641127668,10.2613941 L0.641127668,18.2820878 C0.641127668,19.6058144 1.10380365,20.9414796 2.0170074,22.2526391 C2.09638906,22.3663706 2.2231066,22.4273207 2.35191855,22.4273207 C2.67949898,22.4273207 2.87470676,22.056384 2.68620139,21.7868214 C1.87018263,20.6147369 1.45651807,19.4357406 1.45651807,18.2820878 L1.45651807,10.2613941 C1.45651807,9.61293566 1.52940686,8.98123324 1.66701576,8.37403651 L3.39121147,8.97097019 C3.60380365,9.0442778 3.836503,8.93180295 3.90981067,8.71858241 C3.98374665,8.50599029 3.87085287,8.27391925 3.6582607,8.19998327 C3.65637566,8.19935491 1.0629608,7.30206938 1.0596096,7.30081265 C0.929750349,7.2557808 0.842200054,7.13283346 0.842200054,6.99543399 L0.842200054,5.41827244 C0.842200054,5.21761898 1.01122654,5.09383378 1.16789544,5.09383378 C1.2820459,5.09383378 0.701868311,4.78887399 9.56308643,9.80814343 C9.82301442,9.95475871 10.15625,9.95475871 10.4155496,9.80814343 C19.328502,4.75955094 18.686746,5.09383378 18.8107406,5.09383378 C18.9672001,5.09383378 19.1362265,5.21761898 19.1362265,5.41827244 L19.1362265,6.99543399 C19.1362265,7.13283346 19.0488857,7.2557808 18.9188171,7.30081265 C18.893683,7.3096096 9.9983244,10.394814 9.97298091,10.3860171 L5.19939678,8.73324397 C4.98638574,8.6599363 4.7541052,8.77241121 4.68079759,8.98563169 C4.60686161,9.19801442 4.71996483,9.43029491 4.932557,9.50423088 L9.70656,11.1567946 C9.88626842,11.2187919 10.0862936,11.2208864 10.2718666,11.1567946 L18.3116203,8.37403651 C18.4492292,8.98123324 18.522118,9.61293566 18.522118,10.2609752 L18.522118,11.6747654 C18.522118,11.9005529 18.7047587,12.0825654 18.9297084,12.0825654 C19.1548676,12.0825654 19.3375084,11.9005529 19.3375084,11.6747654 L19.3375084,10.2609752 C19.3375084,9.51931131 19.250377,8.79754525 19.0863774,8.10552113 L19.1858663,8.07117126 C19.6441438,7.91240783 19.9518264,7.48031164 19.9518264,6.99543399 L19.9518264,5.41827244 C19.9518264,4.78992123 19.4401391,4.27823389 18.8107406,4.27823389 L18.8107406,4.27823389 Z M10.0138237,9.09852547 C9.99853383,9.10669405 9.9801022,9.10669405 9.9654407,9.09852547 L3.11138574,5.21657169 C4.14251003,3.81451072 5.59190681,2.73772622 7.27379357,2.17179121 L7.27379357,5.06555796 C7.27379357,5.45806804 7.44952247,5.82439678 7.75657673,6.07071046 L9.18523796,7.21389072 C9.65482574,7.58922584 10.3240198,7.58880697 10.7933981,7.21389072 L12.2224782,6.07008209 C12.5291136,5.82439678 12.704633,5.45806804 12.704633,5.06555796 L12.704633,4.23152649 C12.704633,4.00657673 12.5219923,3.82393598 12.2970426,3.82393598 C12.0718834,3.82393598 11.8892426,4.00657673 11.8892426,4.23152649 L11.8892426,5.06555796 C11.8892426,5.2094504 11.8245225,5.3437081 11.7124665,5.43398123 C10.1650469,6.67162365 10.2100788,6.68000166 9.98931802,6.68000166 C9.76709115,6.68000166 9.81002847,6.66952917 8.26658847,5.43398123 C8.15390413,5.3437081 8.08939346,5.2094504 8.08939346,5.06555796 C8.08939346,0.878225523 8.08541389,1.13878182 8.09630531,1.10568869 C8.11327078,1.04704257 8.16165383,1.00033512 8.22365115,0.988187024 C9.34839979,0.765541233 10.5609082,0.751089115 11.7543566,0.986092493 C11.8180295,0.998659517 11.8670409,1.04599528 11.8831686,1.106317 C11.8925938,1.14087635 11.8892426,1.04096847 11.8892426,2.60074563 C11.8892426,2.82569539 12.0718834,3.00833614 12.2970426,3.00833614 C12.5219923,3.00833614 12.704633,2.82569539 12.704633,2.60074563 L12.704633,2.17179121 C14.3867292,2.73772622 15.8359166,3.81451072 16.8676692,5.21657169 L10.0138237,9.09852547 Z" id="Shape"></path>
            </g>
        </g>
    </g>
</svg>